<?xml version="1.0" encoding="UTF-8" standalone="no"?>
<!DOCTYPE svg PUBLIC "-//W3C//DTD SVG 1.1//EN" "http://www.w3.org/Graphics/SVG/1.1/DTD/svg11.dtd">
<svg width="100%" height="100%" viewBox="0 0 1920 311" version="1.1" xmlns="http://www.w3.org/2000/svg" xmlns:xlink="http://www.w3.org/1999/xlink" xml:space="preserve" xmlns:serif="http://www.serif.com/" style="fill-rule:evenodd;clip-rule:evenodd;stroke-linejoin:round;stroke-miterlimit:2;">
    <g id="Artboard1" transform="matrix(1,0,0,0.90407,0,-665.395)">
        <rect x="0" y="736" width="1920" height="344" style="fill:none;"/>
        <clipPath id="_clip1">
            <rect x="0" y="736" width="1920" height="344"/>
        </clipPath>
        <g clip-path="url(#_clip1)">
            <g id="_23488--Converted--02" serif:id="23488 [Converted]-02" transform="matrix(11.6477,0,0,7.27305,960,920.72)">
                <g transform="matrix(1,0,0,1,-82.42,-21.9)">
                    <clipPath id="_clip2">
                        <rect x="0" y="0" width="164.84" height="43.8"/>
                    </clipPath>
                    <g clip-path="url(#_clip2)">
                        <g transform="matrix(1.04707,0,0,1,-5.0364,5.66)">
                            <path d="M162.24,38.14L162.24,9.71C162.24,9.62 162.24,10.29 162.24,9.71C161.6,9.49 161.73,9.89 161.32,10.24C160.75,10.36 160.85,10.39 159.94,10.88C158.99,10.76 158.36,11.18 157.45,10.61C156.58,10.37 155.68,9.61 154.78,10.41C153.88,11.21 152.99,10.5 152.1,10.19C151.136,10.341 150.149,10.172 149.29,9.71C148.29,9.89 147.29,10.31 146.51,10.02C145.86,9.41 145.65,10.31 144.9,11.02C144.39,11.71 143.54,11.4 143.02,11.02C142.28,10.87 141.54,10.92 140.86,10.84C140.18,11.76 139.55,10.36 139.01,10.03C137.81,9.55 137.26,8.27 135.62,9.03C134.91,8.74 134.03,7.96 133.17,9.03C132.31,8.3 131.46,9.08 130.8,9.22C130.37,9.43 130.21,10.63 129.75,9.67C129.12,8.8 128.16,10.16 127.49,9.74C126.19,10.81 125.27,8.18 123.95,8.74C122.95,8.27 121.95,9.33 120.85,8.74C119.78,8.66 118.71,9.8 117.74,8.98C116.92,9.37 116.12,9.98 115.32,9.25C114.584,9.652 113.719,9.752 112.91,9.53C111.05,10.29 109.2,9.12 107.35,9.75C105.52,10.12 103.69,9.25 101.88,9.95C101.16,9.87 100.52,10.79 99.88,10.21C99.271,10.548 98.554,10.638 97.88,10.46C97.07,11.59 96.27,11.08 95.47,10.55C94.67,11.55 93.87,10.24 93.07,10.64C92.46,10.7 91.8,11.93 91.15,10.64C90.49,10.64 89.84,10.9 89.26,10.84C88.91,11.84 88.67,11.3 88.26,11.16C87.26,11.16 86.62,11.44 85.77,10.89C84.31,10.99 82.77,8.79 81.21,9.06C79.64,8.59 78.03,8.76 76.41,7.84C75.754,7.373 74.85,7.441 74.27,8C73.55,8.34 72.85,9 72.34,7.81C71.85,7.42 71.59,6.25 71.07,6.73C70.72,7.15 70.07,6.84 69.64,6.37C69.01,6.81 68.4,6.45 67.77,6.37C67.33,5.31 66.99,6.04 66.53,6.17C65.9,6.53 65.31,6.17 64.71,6.02C64.12,5.55 63.53,5.74 62.87,6.02C62.13,5.55 61.38,6.29 60.64,6.12C59.9,6.94 59.16,5.58 58.42,6.22C57.772,6.15 57.116,6.239 56.51,6.48C55.51,7.48 54.51,6.76 53.51,6.85C52.87,7.61 52.34,6.79 51.87,7.51C51.39,7.96 50.96,8.1 50.49,8.59C49.594,8.907 48.679,9.167 47.75,9.37C47.17,9.72 46.6,8.94 46.03,9.45C45.474,9.612 44.887,9.636 44.32,9.52C43.64,9.52 43.07,8.62 42.52,9.89C41.958,10.227 41.417,10.598 40.9,11C40.22,10.85 39.81,9.67 39.2,10.62C38.77,11.68 38.37,9.99 37.81,10.41C37.1,10.02 36.41,9.67 35.73,10.28C35.05,9.83 34.37,10.56 33.65,10.28C33.072,10.444 32.466,10.488 31.87,10.41C31.27,10.64 30.67,10.32 30.12,10.36C29.28,10.92 28.55,9.85 27.82,9.36C27.09,9.31 26.36,8.36 25.5,8.36C24.496,8.382 23.492,8.315 22.5,8.16C22,7.98 21.24,6.96 20.5,7.84C19.72,7.05 18.93,7.6 18.36,8.05C17.73,8.75 17.18,7.26 16.64,8.37C16.066,8.583 15.424,8.513 14.91,8.18C14.12,7.83 13.4,8.18 12.66,7.45C11.92,7.63 11.16,6.31 10.32,7.12C9.682,7.251 9.018,7.17 8.43,6.89C7.8,6.21 7.14,7 6.55,7C6,7.38 5.44,8.15 4.89,7.08L4.89,38.14L162.24,38.14Z" style="fill:white;fill-rule:nonzero;"/>
                        </g>
                        <g transform="matrix(1.04707,0,0,1,-5.0364,5.66)">
                            <path d="M162.24,38.14L162.24,15.79C161.84,15.54 161.43,15.65 161.11,15.44C160.11,14.6 159.47,13.63 158.11,14.06C157.119,13.875 156.101,13.875 155.11,14.06C154.11,13 153.03,14.77 152.06,14.24C150.9,14.35 149.6,14.32 148.47,14.37C147.74,13.43 147.03,13.29 146.32,13.74C145.662,13.39 144.968,13.112 144.25,12.91C142.877,12.068 141.177,11.949 139.7,12.59C138.09,12.68 136.56,14.06 135.7,14.09C134.974,14.415 134.212,14.653 133.43,14.8C132.3,16.24 130.43,15 129.43,14.86C128.17,14.78 127.43,13.68 126.32,12.76C125.82,12.257 125.056,12.116 124.41,12.41C123.71,12.81 122.98,13.11 122.3,12.55C121.468,12.215 120.527,12.27 119.74,12.7C118.89,11.36 118.04,13.7 117.23,12.64C115.99,13.15 114.81,12.08 113.52,12.51C112.58,12.66 111.92,11.89 110.94,12.88C109.77,12.56 108.66,11.8 107.47,12.3C106.63,12.12 105.78,13.05 104.93,12.36C104.09,12.58 103.24,12.03 102.41,12.5C101.32,13.14 100.24,12.5 99.16,12.61C97.84,13.28 97.02,11.81 95.86,13.52C95.15,14.47 94.37,13.39 93.67,14.18C93.36,14.49 93.01,13.77 92.67,14.62C92.08,13.8 91.38,15.79 90.67,14.78C89.97,15.57 89.26,15.78 88.67,14.73C88,14.11 87.34,15.06 86.67,14.82C86,14.58 85.34,13.82 84.67,14.88C83.81,14.7 83.16,13.77 82.53,14.29C81.825,14.175 81.147,13.931 80.53,13.57C79.63,13.13 78.6,14.76 77.72,13.63C76.88,13.83 76.19,13.15 75.47,12.35C74.76,12.22 74.03,11.42 73.1,11.35C72.41,10.35 71.69,10.83 71.02,11.23C70.35,11.63 70.02,9.55 69.44,9.96C68.67,9.73 67.87,8.46 67.05,9.08C66.22,8.85 65.37,8.4 64.47,8.97C63.621,9.316 62.707,9.477 61.79,9.44C61.285,9.245 60.725,9.245 60.22,9.44C59.22,9.94 58.38,10.5 57.43,9.91C57.009,10.098 56.559,10.216 56.1,10.26C55.56,10.85 54.84,10.35 54.26,10.36C53.55,9.5 52.86,10.93 52.18,10.43C51.51,10.61 50.85,10.18 50.18,11.01C49.73,12.89 49.18,11.25 48.76,11.91C48.35,10.71 48.07,11.97 47.58,13C46.514,12.667 45.368,12.695 44.32,13.08C43.73,12.72 43.13,12.33 42.53,13.14C41.936,13.103 41.339,13.127 40.75,13.21C40.22,13.65 39.67,13.21 39.16,13.28C38.38,13.06 37.91,12.88 37.16,12.65C36.35,13.91 35.49,13.27 34.67,12.7C33.91,12.42 33.18,12.8 32.47,12.28C31.95,12.38 31.33,12.07 30.73,12.19C30.12,11.6 29.52,12.42 29.02,12.5C28.48,13.03 27.95,12.66 27.43,12.74C26.72,11.97 26.37,13.74 25.59,13.46C24.83,14.08 23.98,13.46 23.32,12.98C22.636,12.76 21.997,12.421 21.43,11.98C20.56,12.81 19.76,12.11 18.87,11.31C18.42,11.16 17.96,11.84 17.52,11.15C17.11,10.97 16.81,10.24 16.39,10.68C15.82,10.82 15.16,11.52 14.51,10.68C13.85,11.01 13.21,10.62 12.65,11.14C12.04,11.45 11.41,11.14 10.76,11.56C10.107,11.727 9.431,11.781 8.76,11.72C8.086,11.757 7.417,11.854 6.76,12.01C6.1,11.94 5.44,11.39 4.81,11.77L4.81,38.14L162.24,38.14Z" style="fill:rgb(255,209,136);fill-rule:nonzero;"/>
                        </g>
                    </g>
                </g>
            </g>
        </g>
    </g>
</svg>
