<svg id="Layer_1" data-name="Layer 1" xmlns="http://www.w3.org/2000/svg" viewBox="0 0 240.41 56.47"><defs><style>.cls-1{fill:#fff;}.cls-2{fill:#74d999;}.cls-3{fill:#ffebb3;opacity:0.71;}</style></defs><title>note</title><path class="cls-1" d="M11.71,52c0,.07.18,1.17.18,1.36,0-.06-.17-1.18.17-.89.44-.21,2.81-.62,3.23-.23,1.2.11,2.4.75,3.6-.13,2,.63,4.38-.54,6.22-.37A17.34,17.34,0,0,0,28,51.31c.83.2,1.27-.56,2.18.35.65.53,1.32,0,2-.09,1.38-.27,2.75.19,4.12-.15a4.82,4.82,0,0,0,3.48-.16c1.16.7,2.29-.14,3.37.14,1.26-.63,2.47,1,3.69.18,1.2-.1,2.41.13,3.67-.45a5.31,5.31,0,0,1,2.55-.52c.46-.49.85.32,1.29.1a2.18,2.18,0,0,1,2.1.24c.81.37,1.64-.17,2.45.91.59-.41,1.32.81,2,.64.54-.89,1.09-.27,1.64,0,.87-.29,1.69.57,2.56.32.73-.57,1.48-1,2.22-.06,1.29.57,2.81-.48,3.89.1.67.15,1.36.86,2.17.71.46.7,1,.38,1.44,0a7.57,7.57,0,0,1,3.07-.17,5.23,5.23,0,0,1,3,0,7.83,7.83,0,0,0,3.31.16c1.12.17,2.22-.48,3.22-.44,1.07-1.07,2,.2,3.2-.4s2.34.61,3.5-.15a13.36,13.36,0,0,1,4.45-.18c.57.35.76-.1,1.24-.39.46.48.73-.33,1.24-.25,1,.49,1.91-1.24,2.79-.68.88,1.14,1.76-1,2.78-.56a4.9,4.9,0,0,1,3.77.23c1.24.1,2.48.52,3.71-.12a34.47,34.47,0,0,1,3.53-.71c1.1-.79,2.33.1,3.51-.3,1.92-.08,3.83.26,5.72-.21a18.07,18.07,0,0,1,5.58-.23,1.86,1.86,0,0,1,2.3.24c.89.5,1.87.25,2.93.5a3.27,3.27,0,0,1,2.75-.12c1-1.05,1.81,0,2.64.55.47.56.8-.92,1.39.37a2.94,2.94,0,0,0,1.44-.07c1.27.19,2.53-.28,3.78-.16a2.51,2.51,0,0,1,2.9.26c1,.49,2,0,3,.39.45-.21.85.28,1.32.24,1-1.33,1.54.12,2.43.64s1.51-.67,2.42-.25c.5.48,1.08,0,1.58-.1.5-.64,1.12-.34,1.6,0,.56,0,1.35,1,1.79.66.54.48.67.17,1.38.34.42-.5.75.35,1.15-.21a2.31,2.31,0,0,1,2.16-.55c1.22.87,2.56-.58,3.77-.18,0-.5,2.9-.35,2.9-.15a5.25,5.25,0,0,0,3.25-.16c.92-.84,1.56-.6,2.45-.4a3.27,3.27,0,0,0,1.93-.51c.41.21.8-.69,1.22-.57.77-.77,1.68.58,2.42.17a2.77,2.77,0,0,0,2.47-.17,3.05,3.05,0,0,1,2.45-.4,2.1,2.1,0,0,1,1.62.24c.75.22,1.5-.28,2.26.32.67-.27,1.15-.85,1.85.13.33-.89.54.19.8.13a4,4,0,0,1,1.27.59c.63,0,1.25-.37,1.86-.24a2.51,2.51,0,0,1,1.84-.36,2.37,2.37,0,0,1,3.11,0c.5-.25,1-.58,1.48-.07.54-.94,1.16-.7,1.61.28.19.28.46.67.63.28.15-.16.24.41.44.3a8.12,8.12,0,0,0,2.1.07c.15-.45.43.26.56-.16.14-.76.22-.25.35-.25.14-.31.3-.16.45-.19.17-.63.27.62.47-.27.19.34.45-.12.65,0a1.64,1.64,0,0,1,1.59-.08c.47-.42.73.17,1.14-.24.27-.66.62-.13.91-.19.73.35,1.49-1.06,2.2-.31.25-.79.68-.5.91-.35.21.39.22-.24.33-.39a1.87,1.87,0,0,1,.67-.76c.38-.34,1.36.1,1.8-.2.44,0,.88-.2,1.31-.06.13.33.35.1.47,0,.07.19.05.35.1-.12.4-.3.67-.56,1.11-.36.37-.48,1.15.21,1.42-.44.25-.32.13.2.57-.47.29-.16.6-.41.89,0,.25.17.49.4.74,0V7.53c-.22-.16-.46.36-.58-.08a1.22,1.22,0,0,0-.9-.06c-.12.07-.47-.28-.6,0s-.11.57-.27.33c-.13,0-.45.3-.6,0a2.53,2.53,0,0,1-1.93,0c-.51.11-.92-1.11-1.42-.35-.54-.12-1.09,0-1.64-.09-.41-.29-.82-.07-1.23-.08-.65.1-.92.21-1.47-.41-.39-.24-.85-.16-1.28-.76a3.16,3.16,0,0,0-2.11-.29c-1-.1-1.94.67-3,.33-.52-.36-.73.5-1.12.35-.35.51-.68,0-1.16.56-.37-.68-1.41-.64-2.38-.21-1,0-1.85,0-1.89.18a3,3,0,0,1-2.22.31c-.74.45-1.45.06-2.09.64-.52,1.2-1,.43-1.57.21-.61.1-1.25-.49-1.88-.14a6.39,6.39,0,0,1-1.83.12,6,6,0,0,1-1.86-.28c-.59-1-1.27-.53-1.9-.26-.37.16-.83.58-1.16.16-.28.1-.4.53-.73.16-.6-.06-1.24.2-1.84-.11-.58-.89-1.1-.22-1.67-.4-.58.19-1.13.58-1.71-.47-1-.05-2.07-.3-3.07-.36s-1.93-1.11-2.92-.64a11.19,11.19,0,0,0-2-.18c-.81-.27-1.6-.09-2.41-.57-.66-.81-1.27,0-1.93-.56-.8-.86-1.66.21-2.44.15a2,2,0,0,1-1.79,0c-.92,1-1.93.2-2.85-.14-.48-.35-.92.18-1.41.18s-.75.2-1.11-.07c-.83-.34-1.66.82-2.5-.14-.83-.48-1.67,0-2.5,0-.13-.16.09,0,0,.7a4.92,4.92,0,0,1-2.4-.12c-.86-.87-1.41.08-2.14.32-1.08-.22-2.49.68-3.74.71-.76.37-1.74-.38-2.52-.14a3,3,0,0,0-2.84,0c-.38.28-.71-.3-1.09.23-.7-.77-1.39.41-2.1.24-.83.74-1.63-.35-2.48.19-.72-.39-.9.91-1.3.76-.27.52-.47.07-.92.53-.38-.89-.93.71-1.33-.08a7.57,7.57,0,0,0-3.49-.33c-1-.62-1.91.18-2.9.3-.41-.89-.73-.5-1.12.14-.68.08-1.48,0-2.12.15-.52.6-.84,0-1.44.18-1,.56-1.86-.84-2.86.55a3.58,3.58,0,0,1-3.79-.08,10.44,10.44,0,0,1-3.69-.3c-1.22.13-2.44,1.28-3.7.19-.94-.83-2,.13-3,0-1.46,0-2.76-1.46-4.25-.68a8.3,8.3,0,0,0-3.4-.15,10.57,10.57,0,0,1-3.45-.16,18.53,18.53,0,0,0-3.16-.14c-1.07-.39-2.14-.07-3.21-.15a2.13,2.13,0,0,0-1.46.09c-.72.39-1.65-.45-2.38-.09-1.46,0-3.45-.74-4.78,0A4.58,4.58,0,0,1,84,8a4.41,4.41,0,0,1-2.69.28c-1.39.21-2.43-.37-3.75-.52-1,0-2.17-.45-3.29-.2A4.28,4.28,0,0,0,71,7.66a8.74,8.74,0,0,0-4.14.46c-.42,0-.89-.56-1.29,0a2,2,0,0,0-.45.16c-.47-.21-.75.74-1.31.13-1.22.09-2.56-.33-3.79-.15A3,3,0,0,1,58.34,8a1.72,1.72,0,0,1-2.18-.09A1.92,1.92,0,0,1,53.61,8c-1,1.15-1.82.41-2.76.25-1.32-.36-2.73-.42-4-.65-1.74.2-3.58-.4-5.36-.46a10.59,10.59,0,0,1-5.74-.27c-2.16-.31-4-.12-6.29-.62-1.16-1-2.12-.55-3.27.28-.84.1-1.73-.6-2.58-.12-2,.27-4.08-.8-6-.06a18,18,0,0,1-5.84.36c0-.66,0,.6,0,0V52Z"/><path class="cls-2" d="M11.71,46.75a10.17,10.17,0,0,0,2.47.17c1.9.52,4.08.07,6,.42,1.5-.12,2.48.94,3.7.87s1.59-.64,3,.64c1.78-.11,3.91-.07,5.64-.15A2.79,2.79,0,0,0,35,49c1.54-.59,3,.26,4.49-.34,1.31-.52,2.33-.24,3.72-.7,1.54.66,3.23-.24,4.74-.1a19.52,19.52,0,0,1,3.82,0c1.27.75,2.54-.69,3.8-.13,1.89.2,4.37-.52,6,.16a2.48,2.48,0,0,1,1.49.51c.42-.07.76.58,1.18.18.41.31.91,1.06,1.3.32s.76,0,1.15.44c.76,0,2.06.69,2.85-.08a1.88,1.88,0,0,1,2.64.13c1.06,1,2.06.55,3.08.89.92,0,1.94.6,3,.12a5.18,5.18,0,0,1,3,0c1.67.25,3.37,0,5.13.21.66-.39,1.24-.7,1.91-.26a1.39,1.39,0,0,0,1.34,0c.92.54,1.84-.37,2.75-.1.85-.56,1.94.34,2.75-.13.61.1.47-1.13.85-.49.27-.49.62-.24.93-.22.81-1,1.63.37,2.31-.44.79.54,1.37-.25,2.25-.47.91-1,1.59-.55,2.53-.57,1.24-.07,2.5.34,3.73-.11,0-.17,3-1,3-.11a2.22,2.22,0,0,0,2.08-.1,2.3,2.3,0,0,0,2.26-.85,3.23,3.23,0,0,0,1.82-.38c.86.42,2-.48,2.81-.12,1.46.39,3.23-.32,4.54.09a3.34,3.34,0,0,1,2.12.51c.49.74.65.64,1.12-.3.65.3,1.43-1.08,2.1-.14a21.7,21.7,0,0,1,4-.15,1.47,1.47,0,0,1,1.94.31c.51.66.63,1,1.17.23,1.1-.2,2,.51,3.13.2.93,1.06,1.86.94,2.79-.1,1.31.12,2.38-1.36,3.55.17.84-.09,1.28.47,2,1.14,1.16.87,2.8.51,4.18.16.54-.24,1.26.3,1.71.29.35.75.23.29.72.24.41-.7.81.28,1.22.11.34.13.65.81,1,.26a1.72,1.72,0,0,0,1.64-.2c.32.34.53-.29.82-.22,0-.28.1.06.24-.16,0-.43.21-.19.21,0,.92.1,2.58-.82,3.52-.11.61,1,1.36.52,1.91.39.57.75.67-.23,1,.9.47-.11,1,.22,1.62.28.56-.1,1.41-.8,2.05-.24.5.15.85.57,1.38.09a4.44,4.44,0,0,1,2.42-.11c.78.27,1.37-1.14,2.17-.39.52-.25.88-.41,1.32-.19s1-1,1.59-.36c.34-.46.46-.11.76-.1.13.39.31,0,.53-.25.09.64.19,0,.29,0,1.26-.09,2.53-.82,3.71-.76.57-1.62,1.22-.09,1.88-.46a4.38,4.38,0,0,1,1.93-.23c.74-.45,1.47.53,2.21-.08a.91.91,0,0,0,1.43,0c.28.79.34.4.59-.28s.72-.08,1-.18c.29.89.55.25.81-.11.09.83.21.41.38-.35.12-.22.25-.31.37-.08.48-.09.87-.41,1.35-.29a2.86,2.86,0,0,1,2.15.08l1.57.33c.37-.1.7.26,1.09.38.48-.37.95,0,1.44.23.35-.67.7.56,1,.14.32.38.58-.2.92.27.58.47,1.2.09,1.81,0,.62.26,1.24-.27,1.82-.08,1,.56,1.93.17,2.81.9.29,1,.59.17.88.35s.3.59.43.26.53.11.75,0c.55,0,1.1,0,1.64-.06.56.52.7.12,1.13.33s.56.21,1,.34c.28-.42.44-.09.69-.14.21.54.42-.89.62-.08,0-.16.23.16.41-.34.24.18.2.45.28-.56.81-.73,1.71-.4,2.54-.26.4,0,.63-.48.87-.55.24-1.08.54-.57.82-.78.24.47.41-.77.72-.74a2,2,0,0,1,1.88-.29,6.41,6.41,0,0,0,1-.18c.29,0,.59-.74.89-.22.43.27.69-.32,1.05-.47s.9-1.23,1.38-.7c.35,0,.43-.42.73.21A2.1,2.1,0,0,0,232,44c.56.3,1.12-.34,1.68-.05.06-.18.11-.09.16,0V11.11c-.12-.08-.22.2-.29,0a2,2,0,0,0-1.49-.52c-.27.23-.55-.27-.87-.39-.49,0-.94-.56-1.43-.17-.65,0-1.31-.56-1.9-.68-.55-1-1.09-.6-1.72-.8a9.1,9.1,0,0,0-2.08-.1c-.69.21-1.38.74-2.08.09-.9.11-1.76-.25-2.7,0-.47-.26-1,0-1.45-.07-.66-.14-1.3.58-2,.37a1.7,1.7,0,0,1-1.36.09c-.62.1-1.47.86-1.82.47-.2.16-.1.63-.47,1.09-.12-.13-.35.08-.48,0-.44-.19-.87.1-1.31-.06a3.41,3.41,0,0,0-1.65,0c-.45.19-.7.43-1.21.64-.58-.28-1.34.33-2,.06A.7.7,0,0,1,205,11c-.15.71-.24-.48-.42-.21-.35,0-.77-.5-1.13-.18-1-.21-1.9.24-2.81-.18s-1.79,0-2.64-.85a3.44,3.44,0,0,0-1.22-.69,1.78,1.78,0,0,0-2-.11c-.4.06-.76-.68-1.17.09A2,2,0,0,0,192,9c-.87.57-1.78-.38-2.68,0-.26.69-.59.7-.83-.06-.36-.4-.42-.08-.84-.3-.63.35-1.36-1.11-2-.46a1.88,1.88,0,0,1-2.08-.42c-.7-.18-1.42-.92-2.17-.16,0,0-2.06-.14-4.15-.23-2.1-.82-4.22-.93-4.22-.23-.7.23-1.78-.23-2.44-.13-.45-.22-.49.8-.91.56-.3-.58-.94.33-1.27-.09-.46.17-.87-.11-1.31,0-.37-.7-.66.37-1,.19-.65.66-1.12.29-1.74.39a1.8,1.8,0,0,0-2.48-.06,6.44,6.44,0,0,0-2.41.36c-.78,1.19-1.59.45-2.41.3-.83.09-1.67.53-2.54-.12a3.28,3.28,0,0,0-2.38-.12,3.43,3.43,0,0,0-2.36.1,5.62,5.62,0,0,0-3.22.16,3.09,3.09,0,0,0-2.2.29c-.87-.25-1.61.41-2.46.08-1,.61-2,.36-3,.41-1.12-.86-2.08,1-3.26.2-1.08,1.79-3.09,0-3.8.39-.63,1.56-1.32-.11-2.35.7a3.53,3.53,0,0,0-3.12,0c-1,.38-1.7,1.56-2.74.71-.73-.29-1.61-.82-2.3.15-.48-.34-.82-.14-1.33.28-1,.1-2,0-3.09.12-1.06-.2-2.13,0-3.19-.15-.26-.28-.62-.12-.87-.07-.3-.28-.38.32-.62-.29a2.84,2.84,0,0,0-1.67-.25,11.14,11.14,0,0,0-3-.14,4.6,4.6,0,0,0-2.72-.1c-.72.07-1.17-.46-1.88-.43-.54-.51-.9.14-1.45-.25-.9.19-1.88-.64-2.83-.6s-1.25.21-2,.26a2.41,2.41,0,0,1-1.83.1,2.88,2.88,0,0,0-1.34.32c-.41-.16-1.13-.51-1.57-.08-1-.2-2.11.54-3.16-.13-1.17-.14-2.07-.53-3.23-.66a1.35,1.35,0,0,0-1.41,0c-.19-.1-.46.22-.61.31-.5.15-.79.61-1.39.3-1-.13-2.18.23-3.27,0-1.16-.45-2.22.14-3.42-.27-1.64.61-3-.57-4.63.16-1,.34-2.18,0-3.15.3-.28,0-.45-.38-.76.26-.41.1-.91-.27-1.33,0-1.34-.26-2.67.28-4,0-1.31.32-2.59-.38-4-.29A6.93,6.93,0,0,0,53.58,10c-1.33.28-2.65-.59-4-.14-1.5.15-2.79.68-4.26.39a20.92,20.92,0,0,1-3.53.28c-1.51-.07-3.08-.2-4.62-.14a6.78,6.78,0,0,0-2.43.61,14.25,14.25,0,0,0-2.84.33,8.23,8.23,0,0,0-3.5-.32c-1.45,0-3,.32-4.41-.16a20.61,20.61,0,0,0-5.14-.55c-1.17.27-6.4-.37-6.29.55-.26.31-.56-.37-.86.05V46.75Z"/><rect class="cls-3" x="9.46" y="2.06" width="7.41" height="22.07" transform="translate(13.11 -5.47) rotate(45)"/><rect class="cls-3" x="226.28" y="33.58" width="7.41" height="22.07" transform="translate(98.91 -149.56) rotate(45)"/></svg>