<svg id="Layer_1" data-name="Layer 1" xmlns="http://www.w3.org/2000/svg" viewBox="0 0 244.94 60.35"><defs><style>.cls-1{fill:#fff;}.cls-2{fill:#ff88a0;}.cls-3{fill:#ffebb3;opacity:0.71;}</style></defs><title>note</title><path class="cls-1" d="M9.18,50.14c0,.07.18,1.17.18,1.36,0-.06-.17-1.18.17-.89.45-.21,2.81-.62,3.23-.23,1.2.12,2.41.76,3.6-.13,2,.63,4.39-.54,6.22-.37a18.37,18.37,0,0,0,2.92-.37c.83.19,1.27-.57,2.18.34.65.53,1.32,0,2-.09,1.38-.27,2.75.19,4.12-.15a4.87,4.87,0,0,0,3.48-.15c1.16.69,2.29-.15,3.37.13,1.26-.63,2.47,1,3.69.18,1.2-.1,2.41.13,3.67-.45a5.34,5.34,0,0,1,2.55-.52c.46-.49.85.32,1.29.1a2.18,2.18,0,0,1,2.1.24c.81.38,1.64-.17,2.46.91.58-.41,1.31.81,2,.65.54-.9,1.09-.27,1.64,0,.87-.29,1.69.57,2.56.33.74-.57,1.48-1,2.22-.07,1.29.57,2.81-.48,3.89.1.67.15,1.36.86,2.17.71.46.71,1,.38,1.45,0a7.69,7.69,0,0,1,3.06-.17,5.32,5.32,0,0,1,3,0,7.87,7.87,0,0,0,3.32.16c1.11.17,2.22-.48,3.21-.44,1.07-1.07,2,.2,3.2-.4s2.34.61,3.5-.15a13.36,13.36,0,0,1,4.45-.18c.57.35.76-.1,1.24-.39.46.48.73-.33,1.24-.25,1,.49,1.91-1.23,2.79-.68.88,1.14,1.76-1,2.78-.55a4.85,4.85,0,0,1,3.77.22c1.24.1,2.48.52,3.71-.12a32.34,32.34,0,0,1,3.53-.7c1.1-.8,2.33.1,3.51-.31,1.92-.08,3.83.26,5.72-.21a18.39,18.39,0,0,1,5.58-.23,1.86,1.86,0,0,1,2.3.24c.89.5,1.87.25,2.93.5a3.27,3.27,0,0,1,2.75-.12c1-1.05,1.81,0,2.64.55.47.57.8-.92,1.39.37a2.94,2.94,0,0,0,1.44-.07c1.27.19,2.53-.28,3.78-.16a2.51,2.51,0,0,1,2.9.26c1,.5,2,0,3,.39.45-.21.85.28,1.32.24,1-1.33,1.54.12,2.44.64s1.5-.66,2.41-.25c.5.49,1.08,0,1.58-.1.5-.64,1.12-.34,1.6,0,.56,0,1.35,1,1.79.66.54.48.67.17,1.38.34.42-.5.75.36,1.15-.21A2.34,2.34,0,0,1,168.9,50c1.22.87,2.56-.58,3.77-.18,0-.5,2.9-.35,2.9-.14a5.4,5.4,0,0,0,3.25-.16c.92-.85,1.56-.6,2.45-.41a3.27,3.27,0,0,0,1.93-.51c.41.22.8-.68,1.22-.57.77-.77,1.68.59,2.42.17a2.74,2.74,0,0,0,2.47-.17,3.1,3.1,0,0,1,2.45-.4,2.14,2.14,0,0,1,1.62.24c.75.23,1.5-.28,2.26.32.67-.27,1.15-.85,1.85.13.33-.89.54.19.8.13a4.12,4.12,0,0,1,1.27.59c.63,0,1.25-.37,1.86-.24a2.47,2.47,0,0,1,1.84-.35,2.37,2.37,0,0,1,3.11,0c.5-.25,1-.58,1.48-.07.54-.94,1.16-.7,1.61.28.19.28.46.67.63.29.15-.16.24.4.44.29a8.12,8.12,0,0,0,2.1.07c.15-.45.43.26.57-.16.13-.76.21-.25.34-.25.14-.31.3-.16.45-.18.17-.64.27.62.47-.28.19.34.45-.12.65,0a1.64,1.64,0,0,1,1.59-.08c.47-.42.73.18,1.14-.24.28-.66.62-.13.91-.19.73.35,1.49-1.06,2.2-.31.25-.79.68-.5.91-.35.21.39.22-.24.33-.39a1.78,1.78,0,0,1,.67-.75c.38-.35,1.36.09,1.81-.21.43,0,.87-.2,1.3-.06.13.33.35.1.47,0,.07.19.05.35.1-.12.4-.3.68-.56,1.11-.36.37-.48,1.15.21,1.42-.43.25-.33.13.19.57-.47.29-.17.6-.42.89,0,.25.16.5.39.74,0V5.72c-.22-.16-.45.36-.58-.08a1.22,1.22,0,0,0-.9-.06c-.12.07-.47-.28-.6,0s-.11.56-.27.32c-.13,0-.45.3-.6,0a2.53,2.53,0,0,1-1.93,0c-.51.12-.92-1.11-1.42-.35-.54-.12-1.09,0-1.64-.09-.4-.29-.82-.07-1.23-.08-.65.1-.92.21-1.47-.41-.39-.24-.85-.16-1.28-.76a3.23,3.23,0,0,0-2.11-.29c-1-.1-1.94.68-3,.33-.52-.36-.73.5-1.12.35-.35.52-.68,0-1.16.56-.37-.68-1.41-.63-2.38-.21-1,0-1.85,0-1.89.18a3,3,0,0,1-2.22.31c-.74.45-1.45.06-2.09.64-.52,1.21-1,.43-1.57.21-.61.1-1.25-.49-1.88-.14a6.39,6.39,0,0,1-1.83.12A6,6,0,0,1,196.23,6c-.59-1-1.27-.53-1.9-.26-.37.16-.83.58-1.16.16-.28.1-.4.54-.73.16-.6-.06-1.24.2-1.84-.1-.58-.9-1.1-.23-1.67-.41-.58.19-1.13.58-1.71-.47-1,0-2.07-.3-3.07-.36s-1.93-1.11-2.91-.64a11.38,11.38,0,0,0-2-.18c-.81-.26-1.6-.09-2.41-.57-.66-.81-1.27,0-1.93-.55-.8-.87-1.66.2-2.44.15a2,2,0,0,1-1.79,0c-.92,1-1.93.2-2.85-.14-.48-.35-.92.18-1.41.19s-.75.19-1.11-.08c-.83-.34-1.66.82-2.5-.14-.83-.48-1.67,0-2.5,0-.13-.16.09,0,0,.7a4.93,4.93,0,0,1-2.4-.12c-.86-.87-1.41.08-2.14.32-1.08-.22-2.49.69-3.74.72-.76.36-1.74-.39-2.52-.15a3,3,0,0,0-2.83,0c-.39.28-.72-.3-1.1.24-.7-.78-1.39.4-2.1.23-.83.74-1.63-.35-2.48.19-.72-.39-.9.91-1.3.76-.27.52-.46.07-.92.53-.38-.88-.93.72-1.32-.08a7.63,7.63,0,0,0-3.5-.33c-1-.62-1.91.18-2.9.3-.41-.89-.73-.5-1.12.14-.68.08-1.48,0-2.12.16-.52.59-.84,0-1.44.18-1,.56-1.86-.85-2.86.54A3.58,3.58,0,0,1,119.68,7,10.68,10.68,0,0,1,116,6.72c-1.22.13-2.44,1.27-3.7.18-.94-.83-2,.13-3,0-1.46,0-2.76-1.46-4.25-.68a8.3,8.3,0,0,0-3.4-.15,10.57,10.57,0,0,1-3.45-.16A18.53,18.53,0,0,0,95,5.75C94,5.36,92.9,5.69,91.83,5.6a2.13,2.13,0,0,0-1.46.09c-.71.39-1.65-.45-2.38-.09-1.46,0-3.45-.74-4.78,0a4.58,4.58,0,0,1-1.7.54,4.34,4.34,0,0,1-2.69.28c-1.39.21-2.43-.37-3.75-.52-1,0-2.17-.45-3.29-.2a4.28,4.28,0,0,0-3.28.15,8.74,8.74,0,0,0-4.14.46c-.42,0-.89-.56-1.29,0a2,2,0,0,0-.45.16c-.47-.2-.75.74-1.31.13-1.22.09-2.56-.33-3.79-.15a3,3,0,0,1-1.71-.27,1.72,1.72,0,0,1-2.18-.09,1.92,1.92,0,0,1-2.55.06c-1,1.15-1.81.42-2.76.25C47,6,45.6,6,44.28,5.74c-1.74.2-3.58-.4-5.36-.45A10.6,10.6,0,0,1,33.18,5c-2.16-.31-4-.12-6.29-.62-1.16-1-2.12-.55-3.27.28-.84.11-1.73-.6-2.58-.12-2,.27-4.08-.8-6-.06a18.3,18.3,0,0,1-5.84.37c0-.67,0,.6,0,0V50.14Z"/><path class="cls-2" d="M9.18,44.94a9.7,9.7,0,0,0,2.47.17c1.9.52,4.08.07,6,.42,1.5-.12,2.48.94,3.7.87s1.59-.64,3,.64c1.78-.11,3.91-.07,5.64-.15a2.75,2.75,0,0,0,2.36.29c1.54-.59,3,.26,4.49-.34,1.31-.52,2.33-.24,3.72-.7,1.54.66,3.23-.24,4.74-.1a20.33,20.33,0,0,1,3.82,0c1.27.75,2.54-.69,3.8-.13,1.89.2,4.37-.52,6,.16a2.43,2.43,0,0,1,1.49.52c.42-.07.76.57,1.18.17.41.32.91,1.06,1.3.32s.76,0,1.15.44c.76,0,2.06.69,2.86-.08a1.87,1.87,0,0,1,2.63.13c1.06,1,2.06.55,3.08.89.92,0,1.94.6,3,.12a5.26,5.26,0,0,1,3,0c1.67.25,3.37,0,5.13.21.66-.39,1.24-.69,1.91-.26a1.39,1.39,0,0,0,1.34-.05c.92.55,1.84-.37,2.75-.1.85-.56,1.94.34,2.75-.13.61.1.47-1.13.85-.49.27-.49.62-.24.94-.22.8-1,1.62.37,2.3-.44.79.54,1.37-.25,2.25-.46.91-1,1.59-.56,2.53-.57,1.24-.08,2.5.33,3.73-.12,0-.17,3-1,3-.1a2.25,2.25,0,0,0,2.08-.11,2.31,2.31,0,0,0,2.26-.84,3.41,3.41,0,0,0,1.82-.38c.86.41,2-.48,2.81-.13,1.46.4,3.23-.31,4.54.09a3.34,3.34,0,0,1,2.12.51c.49.74.65.64,1.12-.3.66.31,1.43-1.08,2.1-.14a21.69,21.69,0,0,1,4-.14,1.47,1.47,0,0,1,1.94.3c.51.66.63,1,1.17.23,1.11-.19,2,.52,3.13.2.93,1.06,1.86.94,2.79-.09,1.31.11,2.38-1.37,3.55.16.84-.09,1.28.47,2,1.14,1.16.87,2.81.51,4.18.16.54-.24,1.26.3,1.71.29.35.76.23.29.72.24.42-.7.81.28,1.22.11.34.13.65.81,1,.26a1.72,1.72,0,0,0,1.64-.2c.32.34.53-.29.82-.22,0-.28.1.06.24-.16,0-.42.21-.18.21,0,.92.1,2.58-.82,3.52-.11.61,1,1.36.52,1.92.4.56.75.66-.24,1,.89.47-.11,1,.22,1.62.29.56-.11,1.42-.81,2.05-.25.5.15.85.57,1.39.09a4.5,4.5,0,0,1,2.41-.11c.78.27,1.37-1.13,2.17-.38.52-.26.88-.41,1.32-.2s1-1,1.59-.36c.34-.46.46-.11.76-.1.13.39.31,0,.53-.25.09.64.19,0,.29,0,1.26-.08,2.53-.82,3.71-.76.57-1.62,1.23-.09,1.88-.46a4.37,4.37,0,0,1,1.93-.22c.74-.46,1.47.52,2.21-.09a.9.9,0,0,0,1.43-.05c.28.79.34.4.59-.28s.73-.08,1-.18c.29.89.55.25.81-.11.09.83.21.42.38-.35.12-.22.25-.31.38-.08.47-.08.86-.41,1.34-.29a2.86,2.86,0,0,1,2.15.08l1.57.33c.37-.1.7.26,1.09.38.48-.37,1,0,1.44.23.35-.67.7.56,1,.14.32.38.58-.19.92.27.58.47,1.2.1,1.81,0,.62.27,1.24-.27,1.82-.08,1,.57,1.93.18,2.81.9.29,1,.59.17.88.35s.3.59.43.26.53.11.75,0c.55,0,1.1,0,1.64-.06.56.52.7.12,1.13.33s.56.21,1,.35c.27-.43.43-.1.68-.14.21.53.42-.9.62-.08,0-.17.23.15.41-.35.24.19.2.45.28-.56.81-.73,1.71-.39,2.54-.26.4,0,.63-.48.87-.55.24-1.08.54-.56.82-.78.24.47.41-.76.72-.74a2,2,0,0,1,1.88-.29,6.19,6.19,0,0,0,1-.18c.29,0,.59-.74.89-.22.43.27.69-.32,1.05-.46s.9-1.24,1.38-.71c.35,0,.43-.42.73.22a2.21,2.21,0,0,0,1.54,0c.56.29,1.12-.35,1.68-.06.06-.18.11-.09.16,0V9.3c-.12-.08-.22.21-.29,0a2,2,0,0,0-1.49-.52c-.27.23-.55-.27-.87-.39-.49,0-.94-.55-1.43-.17-.65,0-1.31-.56-1.9-.68-.55-1-1.08-.6-1.72-.8a9.1,9.1,0,0,0-2.08-.1c-.69.21-1.38.74-2.07.09-.91.12-1.76-.25-2.71,0-.47-.27-1,0-1.45-.08-.66-.14-1.29.58-2,.38a1.74,1.74,0,0,1-1.36.08c-.62.1-1.47.86-1.82.48-.2.16-.1.62-.47,1.09-.12-.14-.34.08-.48,0-.44-.19-.87.11-1.31-.06a3.41,3.41,0,0,0-1.65,0c-.45.19-.7.43-1.21.64-.58-.27-1.34.33-2,.06a.67.67,0,0,1-.6-.11c-.15.71-.24-.48-.42-.21-.34,0-.77-.5-1.13-.18-1-.21-1.9.24-2.81-.18s-1.79,0-2.64-.84a3.32,3.32,0,0,0-1.22-.7,1.78,1.78,0,0,0-2-.11c-.4.07-.76-.68-1.17.09a1.94,1.94,0,0,0-1.51.1c-.87.56-1.78-.39-2.68,0-.26.68-.59.7-.83-.07-.36-.4-.42-.08-.84-.3-.63.35-1.36-1.11-2-.46a1.88,1.88,0,0,1-2.08-.42c-.7-.18-1.42-.92-2.17-.16,0,0-2.06-.14-4.15-.22-2.1-.83-4.22-.94-4.22-.23-.69.22-1.78-.24-2.44-.14-.44-.22-.49.8-.91.56-.3-.57-.94.33-1.27-.09-.46.18-.87-.11-1.31,0-.37-.7-.66.37-1,.19-.65.66-1.12.29-1.74.39a1.8,1.8,0,0,0-2.48-.06,6.87,6.87,0,0,0-2.41.36c-.78,1.19-1.59.46-2.41.3-.83.09-1.67.53-2.54-.12a3.33,3.33,0,0,0-2.38-.12,3.43,3.43,0,0,0-2.36.1,5.62,5.62,0,0,0-3.22.16,3.09,3.09,0,0,0-2.2.29c-.87-.25-1.61.41-2.46.08-1,.61-2,.37-3,.41-1.12-.86-2.08,1-3.26.2-1.08,1.79-3.09,0-3.8.39-.62,1.56-1.32-.11-2.35.71a3.5,3.5,0,0,0-3.12,0c-1,.39-1.7,1.56-2.74.71-.73-.29-1.61-.82-2.3.15-.48-.34-.82-.14-1.33.28-1,.1-2,0-3.09.12-1.06-.2-2.13,0-3.19-.15-.26-.28-.62-.12-.87-.07-.3-.28-.38.32-.62-.29A2.84,2.84,0,0,0,108,9.34a11.55,11.55,0,0,0-3-.14,4.51,4.51,0,0,0-2.72-.09c-.72.06-1.17-.47-1.88-.44-.54-.5-.9.14-1.45-.25-.89.19-1.88-.64-2.83-.6s-1.25.22-2,.26a2.39,2.39,0,0,1-1.82.1,2.89,2.89,0,0,0-1.35.32c-.41-.16-1.13-.5-1.57-.08-1-.2-2.1.54-3.16-.13-1.17-.14-2.07-.52-3.23-.66a1.35,1.35,0,0,0-1.41,0c-.19-.1-.45.22-.6.31-.51.15-.8.61-1.4.3-1-.12-2.18.23-3.27,0-1.16-.46-2.22.13-3.42-.28-1.64.61-3-.57-4.63.16-1,.35-2.18,0-3.15.3-.28,0-.45-.38-.76.26-.41.1-.91-.27-1.33,0-1.34-.27-2.67.27-4,0-1.31.32-2.59-.38-4-.29a6.93,6.93,0,0,0-3.93-.16c-1.32.28-2.65-.59-4-.14-1.5.15-2.79.69-4.26.39a19.86,19.86,0,0,1-3.53.28c-1.51-.07-3.08-.2-4.62-.14a7,7,0,0,0-2.43.61,15,15,0,0,0-2.84.33,8.23,8.23,0,0,0-3.5-.32c-1.45,0-3,.32-4.41-.16a20.61,20.61,0,0,0-5.14-.55c-1.17.27-6.4-.37-6.29.55-.26.31-.56-.37-.86.05V44.94Z"/><rect class="cls-3" x="9.06" y="0.99" width="7.41" height="22.07" transform="translate(12.24 -5.5) rotate(45)"/><rect class="cls-3" x="224.17" y="26.77" width="7.41" height="26.74" transform="translate(95.13 -149.38) rotate(45)"/></svg>