<svg id="Layer_1" data-name="Layer 1" xmlns="http://www.w3.org/2000/svg" viewBox="0 0 260.47 40.64"><defs><style>.cls-1{fill:#fff;}.cls-2{fill:#ba97db;}.cls-3{fill:#ffebb3;opacity:0.71;}</style></defs><title>note</title><path class="cls-1" d="M240.74,2.62a.35.35,0,0,0-.44,0,24.17,24.17,0,0,0-3.61,0c-1.08,0-2.23,0-3.31,0s-2.24.39-3.42.21a8.19,8.19,0,0,1-3.38,0c-.36.24-.84,0-1.22,0-.93-.61-1.49-.27-2.54-.21-.9-.08-1.85.2-2.63.08a5.7,5.7,0,0,1-2.47.23,5.55,5.55,0,0,1-3.79.21,11.53,11.53,0,0,0-2.56,0c-.74.09-1.47-.4-2.2,0a8.47,8.47,0,0,0-3.43-.09A6.89,6.89,0,0,1,204,2.91a3,3,0,0,1-2.78.08c-1,0-2.23-.07-3.23,0-.67-.23-1.27-.5-1.91,0-.61.14-1.14-.49-1.75-.18a14.07,14.07,0,0,0-3.18,0c-1.52,0-2.82.21-4.4.2S183.59,3.1,182,3c-1.39,0-2.8.07-4.21-.06-1.41.13-2.82-.16-4.21,0-.75.17-1.18-.18-1.79.2-.85,0-2.16.12-3.12.09a22.22,22.22,0,0,1-3.85-.38c-.65.11-1.39-.09-2,.23a15.85,15.85,0,0,1-2.84.3,6.34,6.34,0,0,0-1.74,0s-4.79-.27-4.79,0a5.91,5.91,0,0,1-2.71,0c-1.21.15-2.42-.15-3.64.19a11.36,11.36,0,0,1-3.68,0,22.21,22.21,0,0,0-2.83-.06,3.87,3.87,0,0,0-2.42.16,7,7,0,0,0-1.37,0,3.24,3.24,0,0,0-1.83.21c-.92.35-2.49-.08-3.41,0a36.86,36.86,0,0,1-5-.07,6,6,0,0,0-1.89-.15c-1-.62-1.84.12-2.79.08a26.14,26.14,0,0,0-4.15,0,12.27,12.27,0,0,1-2.58-.08c-.85.06-1.87-.24-2.9-.1a13.23,13.23,0,0,1-3,0,19.12,19.12,0,0,0-4.84-.07,15.83,15.83,0,0,0-3.44,0,29.75,29.75,0,0,0-3.32-.18,18.55,18.55,0,0,0-5.27-.12A4.77,4.77,0,0,1,89.43,3c-.72-.27-1.25,0-2.11-.17a14,14,0,0,1-2,0,21.48,21.48,0,0,1-2.78,0,25,25,0,0,0-4.88-.22,29.26,29.26,0,0,0-5-.07c0-.08-4.61.15-4.61,0a8.2,8.2,0,0,0-3.16,0c-.68-.28-1,.53-1.76.22-.69-.14-1.34.28-2,.13-.49.5-.87.14-1.36,0-.51.2-1-.35-1.48.12-1.24-.66-2.52.45-3.81.11-.38.06-.76-.05-1.14,0s-.52.41-.8.12c-.51.44-1.13-.32-1.66,0a11.48,11.48,0,0,1-3.79,0,18.12,18.12,0,0,1-3.75.07c-.37-.28-.83.16-1.18,0-.36.37-.54-.15-.87.14-.69.17-1.19-.3-2,.07-1.19,0-1.89-.14-2.94-.14a4.83,4.83,0,0,0-2.64-.23,11.1,11.1,0,0,0-3.1,0c-1-.19-1.58,0-2.57-.13-1.39-.16-2.79.16-4.19,0-.6.08-1.3-.11-1.9,0a4.24,4.24,0,0,0-2.1.3c-.35-.09-.74.35-1.14.07V37.79c.4.26.8-.11,1.26-.11a3.57,3.57,0,0,1,1.89-.07,5.69,5.69,0,0,0,1.93,0c1.12-.37,1.32-.19,2.21-.46a3.55,3.55,0,0,1,1.92-.06c1.15.31,2-.12,3.08.13.89-.12,1.65.16,2.59.09a9.92,9.92,0,0,1,3.35,0,.58.58,0,0,0,.83,0,27.74,27.74,0,0,1,4.26.25,25.22,25.22,0,0,1,4.31.2c.26-.16.53.25.79,0,.52-.29,1,.22,1.39.27a4.14,4.14,0,0,0,2,.09,10.39,10.39,0,0,0,3.1,0c.57,0,.91.36,1.53-.08.67-.17,1.35.22,2,0,1-.12,2.35.1,3.3,0,.12.34.25-.44.32-.06.51-.4,1,.07,1.56,0a35.76,35.76,0,0,0,4,0c.91-.07,1.46.32,2-.19.54-.13.81-.47,1.47-.53.65-.43.9.06,1.83-.16a17,17,0,0,0,3.27,0c1.09-.39,1.4.17,2.26-.22A14.6,14.6,0,0,0,80,36.71a7.43,7.43,0,0,1,3.12,0,47.65,47.65,0,0,1,5.2-.07,18.86,18.86,0,0,0,3.75.18c1.26,0,2.53.11,3.82,0a7.62,7.62,0,0,0,2.43,0c1.3.09,2.45.07,3.7.22a14.68,14.68,0,0,1,2.39,0,9.23,9.23,0,0,0,2.35,0c1.64-.07,3.46-.07,5.17-.06A9.67,9.67,0,0,0,114,37c.44.18.7-.28,1.1-.23a16.35,16.35,0,0,1,1.77-.07,21.32,21.32,0,0,0,2.63.1,13.58,13.58,0,0,1,3.12.27c.67,0,1.43.09,2.11,0a13.75,13.75,0,0,1,2.26.16c1,.08,1.9.06,3,.13a13.49,13.49,0,0,1,2,.13,16.27,16.27,0,0,0,2.36.23,28.81,28.81,0,0,0,2.94,0c.64,0,1.28.06,1.9,0,.36,0,.63.15,1,.12h.86a8.91,8.91,0,0,0,1.54.14,3.58,3.58,0,0,0,1.18,0,16.57,16.57,0,0,1,4.15-.14c1-.07,2-.19,2.94-.21.82.13,1.75-.13,2.59,0a30.4,30.4,0,0,0,4.16,0,31.21,31.21,0,0,0,3.87.08c.51-.38,1.36,0,1.85,0,.43.29.39,0,.77-.16a16.56,16.56,0,0,0,1.93-.22,17.79,17.79,0,0,1,3.35-.07c1.14-.19,2.28.18,3.41-.07a19.12,19.12,0,0,0,4.35-.32c1.11.1,2.44-.32,3.48-.33a6.09,6.09,0,0,0,1.89-.29c.45-.22,1-.45,1.42-.06a32.4,32.4,0,0,1,3.25-.15c.87-.26,1.75.48,2.63,0a.74.74,0,0,0,1,0,2.77,2.77,0,0,0,2.31.15,13,13,0,0,0,1.53,0,6.52,6.52,0,0,1,2,.27,5.78,5.78,0,0,0,3.08.24,14.26,14.26,0,0,1,2.41.09,8.68,8.68,0,0,0,2.22.4c.59.16.72.42,1.54.1a29.17,29.17,0,0,1,3.74,0c1.25-.13,2.49.23,3.74,0a6.88,6.88,0,0,0,2.71-.08c1.82,0,3.56.26,5.35.15a10.71,10.71,0,0,1,3.15.09,1.19,1.19,0,0,1,1.18.09c1.16,0,2.23.06,3.47.22.91,0,1.8.47,2.71,0,.4.08.92.24,1.28,0,.19-.28.24-.21.4-.16.5,0,1.2-.19,1.92-.21a37,37,0,0,0,5.15,0V2.62Z"/><path class="cls-2" d="M240.74,6s-1.64,0-3.27,0c-1.63-.14-3.27.16-3.27,0-.8.38-1.62-.19-2.42,0s-1.18-.26-1.82-.14a12.27,12.27,0,0,0-2.75-.09,8.4,8.4,0,0,1-2.87,0,14.81,14.81,0,0,1-5,0,27.11,27.11,0,0,0-3.25,0,8.25,8.25,0,0,1-2.28.09,20.94,20.94,0,0,1-3.36,0,3.09,3.09,0,0,0-2.5-.1,40,40,0,0,0-4.91,0,9.76,9.76,0,0,1-2.59,0,18.77,18.77,0,0,1-1.89-.18,11.07,11.07,0,0,0-4.63.12c-1.44.06-2.53.26-4.08.21a7.74,7.74,0,0,1-2,0c-.2,0-.22.22-.38-.07-.48.06-.49-.36-1.08-.07-.66,0-1.24-.11-1.9-.12a10.16,10.16,0,0,0-3.48,0,12.07,12.07,0,0,0-3.5,0,14.71,14.71,0,0,0-3.8-.21c-.79.35-1.44,0-2.26-.14-.43,0-.88,0-1.32,0a39.12,39.12,0,0,0-4.72,0,39.29,39.29,0,0,1-4.73,0c-.69,0-1.51,0-2.18,0a11.43,11.43,0,0,0-2,.2,15.84,15.84,0,0,1-3.77,0,4.38,4.38,0,0,1-2.61,0c-.44.15-.7-.16-1.23.13a12.82,12.82,0,0,1-3.66,0,32.32,32.32,0,0,1-5,.08,11.57,11.57,0,0,0-3.49.4c-1.54,0-3.11.13-4.65,0a7.75,7.75,0,0,0-3.12.15c-.6-.18-1.15.16-1.78.18-.59-.28-1.26.19-1.86,0a15.44,15.44,0,0,1-3,0,3,3,0,0,1-2.09,0,15.82,15.82,0,0,0-2.73.14c-1.69-.13-3.38.19-5.07,0a6.27,6.27,0,0,1-2.59,0c-.48-.11-.85.22-1.36-.15a3.68,3.68,0,0,0-1.1,0c-1-.23-2,.22-3-.06-1.41-.16-2.23.2-3.5-.24a3,3,0,0,0-2.33-.18,4,4,0,0,0-1.91-.06,2.8,2.8,0,0,0-1.78-.13,13.79,13.79,0,0,0-2.57,0,21.87,21.87,0,0,0-2.3,0c-.55.33-1-.08-1.56,0-1.27.21-2.6-.11-3.86,0a30,30,0,0,1-4.82-.14c-.6-.08-1.62.31-2.19,0a8.51,8.51,0,0,0-1,.07c-.65-.16-1.48.32-2.15,0a6.46,6.46,0,0,1-1.81,0,4,4,0,0,1-2-.22c-.77-.31-.62-.5-.76-.4-.88-.09-1.92,0-2.82,0a32.43,32.43,0,0,1-3.3-.1c-1.26,0-2.29.1-3.54,0a9.66,9.66,0,0,0-2.94,0,3.09,3.09,0,0,0-2.58.27c-.95.42-1.63.18-2.86.28a13.62,13.62,0,0,1-2,0,8.92,8.92,0,0,0-3.7.21c-.66.05-1.2-.42-1.85.14-.52-.06-.83-.23-1.32.06s-.58,0-1.24.14a2.24,2.24,0,0,0-1.76,0,2.87,2.87,0,0,1-1.6-.14c-.69.08-1.16-.52-2-.32-1.72-.09-3.62,0-5.35,0a9.5,9.5,0,0,0-1.93.14,7,7,0,0,1-3.19,0c-.73-.34-1.22.14-2.05-.28a2,2,0,0,0-1.52,0,4,4,0,0,0-1.6.11c-.37.2-.61.41-1,.17-.26,0-.56.15-.87,0V35.43c.29-.11.56-.1,1-.21A18.78,18.78,0,0,1,22.68,35c.71-.21,1.48.12,2.17,0a15.29,15.29,0,0,1,3.35.19c1.71,0,3.42-.11,5.13,0,.84,0,1.86,0,2.67,0,.66.52,1,.26,1.6.27s1.14.57,1.84.14c1,0,2,.14,3,.12s2-.17,3-.05c.7,0,1.84-.08,2.57-.09a2.45,2.45,0,0,0,1.41.15,15.4,15.4,0,0,0,1.92.13c1.2.11,2.2,0,3.41.14.9-.08,1.81.14,2.71,0,0-.06,3.49.15,3.49,0a14.5,14.5,0,0,0,2.42-.13c.2-.28.06,0,.56-.36.08-.3.77.1.88-.12a4.94,4.94,0,0,1,2.25-.14c.75-.06,2.09-.07,3.28-.06a4.36,4.36,0,0,0,2.39-.4c.11-.29-.31-.24.6-.37.3-.11,1,.1,1.33,0a5.06,5.06,0,0,0,1.82,0c1.36-.19,2.49.26,3.85.14a7.13,7.13,0,0,0,2.35,0,19.55,19.55,0,0,1,2.73-.15c.9,0,1.78-.28,2.66-.23a20.39,20.39,0,0,1,2.35,0,36.84,36.84,0,0,0,4.07,0c1,0,2-.11,3-.13s2-.06,3-.06a3.89,3.89,0,0,1,1.54.16c.53-.08.93.08,1.49,0a7.25,7.25,0,0,1,2.08,0c1.5.14,3.69-.18,5.11,0a11.43,11.43,0,0,1,1.81.24l3.46.11a3,3,0,0,1,1.14.13c.55,0,1.29,0,1.88,0a18.65,18.65,0,0,1,3,.11c.45-.08.83.29,1.26.15a5.79,5.79,0,0,0,1.25.06,2.55,2.55,0,0,1,1.16.14,4.31,4.31,0,0,0,1.64,0,8.88,8.88,0,0,0,2.47,0,27,27,0,0,1,3.42.23c.54.1,1.15,0,1.75.11s.61,0,1,.13a8.33,8.33,0,0,0,2.45.09,9.31,9.31,0,0,1,2,.18c.45.06.86-.25,1.3,0a11.73,11.73,0,0,0,2.52.07c.8.06,1.46-.12,2.26-.12a25.1,25.1,0,0,0,2.6,0,53.55,53.55,0,0,1,5.52.08c1-.12,1.92-.52,2.88-.25,1-.19,2.26.16,3.35,0,1.27-.16,2.7-.11,3.84-.26.53-.24.29.08.65-.15.41.21.88,0,1.41-.07a6.74,6.74,0,0,1,3.28,0,8.36,8.36,0,0,0,2.78,0c.33.07.75-.48,1-.19.46.17.71-.24,1.32-.18.95-.15,1.9-.61,2.86-.19a6,6,0,0,1,2.85-.19c.7.25,1.14-.33,1.78-.23a1.48,1.48,0,0,0,1.11-.12,9.37,9.37,0,0,1,3.44-.06c1.34.44,2.82,0,4.18,0a26.25,26.25,0,0,1,3.33.16c1,.14,1.91-.14,2.9,0,.76.19,1.58,0,2.31.19a.91.91,0,0,0,.93.1c.55.11.74-.12,1.23.26a2.81,2.81,0,0,0,1.68.06,12,12,0,0,0,3.49,0,23.51,23.51,0,0,1,3.59-.19c1.27,0,2.33.46,3.6.19a9.31,9.31,0,0,1,3.83,0,4.17,4.17,0,0,0,2.06.2,9.84,9.84,0,0,0,2.89.12,5.7,5.7,0,0,0,2.71-.14c.34,0,.71-.12,1.1-.2a2.07,2.07,0,0,1,1.77-.09c.5.12.72-.2,1.16-.13a7.47,7.47,0,0,0,1.75-.06,33.86,33.86,0,0,1,3.49,0,7,7,0,0,1,1.83,0c.3-.25.48,0,.74.13.84.21,2.05-.17,3,.07V6Z"/><rect class="cls-3" x="14.94" y="0.29" width="7.41" height="22.07" transform="translate(13.47 -9.87) rotate(45)"/><rect class="cls-3" x="237.03" y="18.41" width="7.41" height="22.07" transform="translate(91.33 -161.61) rotate(45)"/></svg>