<svg xmlns="http://www.w3.org/2000/svg" viewBox="0 0 536.58 139.54"><defs><style>.cls-1,.cls-11,.cls-2,.cls-4,.cls-5,.cls-6,.cls-7{stroke:#000;}.cls-1{stroke-miterlimit:10;stroke-width:3px;}.cls-2{fill:#dab881;}.cls-2,.cls-3,.cls-4,.cls-5,.cls-9{fill-opacity:1;}.cls-11,.cls-2,.cls-4,.cls-5,.cls-6,.cls-7{stroke-linecap:round;stroke-linejoin:round;stroke-width:2.75px;}.cls-10,.cls-2,.cls-3,.cls-4,.cls-5,.cls-6,.cls-8,.cls-9{fill-rule:evenodd;}.cls-3{fill:#c4a676;}.cls-4{fill:#797979;}.cls-5{fill:#d4d5d5;}.cls-6{fill:#ee8e8b;}.cls-7{fill:none;}.cls-8{fill:#807575;}.cls-9{fill:#c6c8c8;}.cls-10{fill:#ed7f7b;}</style></defs><title>Untitled-2</title><g id="Logo"><path class="cls-1" d="M397,158a11.85,11.85,0,0,1,.74-3.95,17.42,17.42,0,0,1,2-4.05,12,12,0,0,1,3.13-3.22,6.6,6.6,0,0,1,3.86-1.29q0,12,4.23,18.86a27.87,27.87,0,0,0,11.68,10.57,54.41,54.41,0,0,0,17,5q9.57,1.29,20.6,1.84c2.45-.12,5.67-.22,9.66-.28a58,58,0,0,0,11.49-1.29,24.9,24.9,0,0,0,9.38-4q3.87-2.76,3.68-8.46c0-1.72-.06-3.25-.18-4.6a12.29,12.29,0,0,0-.83-3.59,8.81,8.81,0,0,0-2.21-3,20.13,20.13,0,0,0-4.32-2.94l-54.63-29.8a32.17,32.17,0,0,1-5.7-4.14,24.52,24.52,0,0,1-4.6-5.52,31,31,0,0,1-2.94-6.44,21.76,21.76,0,0,1-1.1-6.71q0-7,3.77-11.4a27.79,27.79,0,0,1,9.38-7.08,45.6,45.6,0,0,1,12.14-3.77,72.25,72.25,0,0,1,12.05-1.11,62.86,62.86,0,0,1,6.62.46c2.69.31,5.58.77,8.64,1.38a81.42,81.42,0,0,1,9.11,2.39,33.4,33.4,0,0,1,8,3.77,23.07,23.07,0,0,1,5.79,5.34,11.4,11.4,0,0,1,2.3,7.08,7.29,7.29,0,0,1-5.24.92,20.09,20.09,0,0,1-5.43-2q-2.76-1.47-5.7-3.31c-2-1.22-4-2.45-6.07-3.68A32.48,32.48,0,0,0,466.71,87a18.42,18.42,0,0,0-7.36-.73q-3.5,0-9,.36a57.39,57.39,0,0,0-10.76,1.75,25.55,25.55,0,0,0-9,4.23,9.44,9.44,0,0,0-3.77,8,13.81,13.81,0,0,0,3.49,9.11,40.91,40.91,0,0,0,9.47,7.91,114.72,114.72,0,0,0,13.43,7.17q7.46,3.41,15.08,7t14.9,7.45a71.61,71.61,0,0,1,12.69,8.46,38,38,0,0,1,8.46,9.84,18,18,0,0,1,2.12,11.86,19.63,19.63,0,0,1-5.7,11.41,32.61,32.61,0,0,1-12.14,7.45,65.48,65.48,0,0,1-16.37,3.49,99.55,99.55,0,0,1-18.58-.09,112.08,112.08,0,0,1-18.94-3.5,75.85,75.85,0,0,1-17.11-6.89,55.67,55.67,0,0,1-13.24-10.12A29,29,0,0,1,397,158Z" transform="translate(-395.5 -54.05)"/><path class="cls-1" d="M520.79,185.36c0-.25.06-.89.18-1.94s.3-2.17.55-3.4.43-2.36.55-3.4.19-1.69.19-1.93v-1.93c0-1,0-2.24.09-3.59s.09-2.76.09-4.23v-6.25q0-1.84-.09-3.78c-.06-1.28-.09-2.39-.09-3.31V150q-.56-8.46-2.12-17.93t-3.31-18.86q-1.76-9.37-3.31-18.39t-2.3-16.55q1.65-4.43,3.59-3c1.29.92,2.6,3.1,4,6.53a119.61,119.61,0,0,1,4,12.79q2,7.64,3.59,15.54t2.85,14.9q1.1,7,1.84,10.85a2,2,0,0,0,1.38.37h1.37a10,10,0,0,0,6.44-2.21,28.75,28.75,0,0,0,5.24-5.61q2.49-3.41,4.88-7.36a75.45,75.45,0,0,1,5-7.26,28.82,28.82,0,0,1,5.71-5.61,11.72,11.72,0,0,1,7.17-2.3c1.72,0,2.76.52,3.13,1.56a8.44,8.44,0,0,1,.36,3.59,69.16,69.16,0,0,0-5.88,5.33q-3.32,3.32-7.08,7.17t-7.54,8.1a102,102,0,0,0-6.63,8.18,64.18,64.18,0,0,0-4.78,7.64,14.34,14.34,0,0,0-1.93,6.43,11.45,11.45,0,0,0,2.67,7.36,29.74,29.74,0,0,0,6.8,6.07,45.65,45.65,0,0,0,9.29,4.69q5.15,1.93,10.3,3.31a96.51,96.51,0,0,0,9.75,2.12,46.11,46.11,0,0,0,7.36.73A2.1,2.1,0,0,1,585.9,180a22.77,22.77,0,0,1,.18,2.76,4.69,4.69,0,0,1-1.75,4.05,11,11,0,0,1-4.23,1.84,24.12,24.12,0,0,1-5.15.55h-4.5a21.51,21.51,0,0,1-9.29-2.58A111.34,111.34,0,0,1,551,181q-4.87-3-8.55-5.61t-5.15-2.57a3.89,3.89,0,0,0-4,2.85,27.33,27.33,0,0,0-1.37,6.16,37.15,37.15,0,0,1-1.2,6.16,3.49,3.49,0,0,1-3.59,2.85,8,8,0,0,1-4.41-1.28A4.63,4.63,0,0,1,520.79,185.36Z" transform="translate(-395.5 -54.05)"/><path class="cls-1" d="M589.76,80.88q0-2.2,1.29-2.85a7.36,7.36,0,0,1,3.31-.64c.85-.12,2,.4,3.4,1.56a16.37,16.37,0,0,1,3.5,4,9.57,9.57,0,0,1,1.56,4q.18,2.2-2.76,2.58h-.92a23.65,23.65,0,0,1-4.6-.37,6.26,6.26,0,0,1-2.85-1.2,4.72,4.72,0,0,1-1.47-2.48A17.78,17.78,0,0,1,589.76,80.88Zm9.38,46.17v-2.76q0-2,.09-4.23t.09-4.23v-2.76q-.74-5.7,3.32-5.7a5.26,5.26,0,0,1,3.12.92,8.85,8.85,0,0,1,2.39,2.76,88.1,88.1,0,0,0,.83,18.48q1.38,8.92,3.13,17.66t3.31,17.56a105.65,105.65,0,0,1,1.56,18.4,9.87,9.87,0,0,1-1.56,5.15,5.13,5.13,0,0,1-4.69,2.57q-2.4,0-4.14-4.14a55.56,55.56,0,0,1-3-10.48q-1.27-6.34-2.2-14.07T600,147.37q-.47-7.08-.65-12.69T599.14,127.05Z" transform="translate(-395.5 -54.05)"/><path class="cls-1" d="M645.49,127.42h-5.15a47.37,47.37,0,0,1-7.63-.65,27.74,27.74,0,0,1-7.18-2.11q-3.21-1.47-3.21-4.23a12,12,0,0,1,.27-2.12,1.59,1.59,0,0,1,1.75-1.38l18.94-1.65q.74-6.81,1.11-11.13a62.05,62.05,0,0,0,.18-8.09c-.12-2.52-.28-5.15-.46-7.91s-.34-6.35-.46-10.76a3.4,3.4,0,0,1,.55-2,3.61,3.61,0,0,1,1.38-1.1,8.25,8.25,0,0,1,1.84-.55,9.59,9.59,0,0,1,1.57-.18,4.36,4.36,0,0,1,2.29.73,8.44,8.44,0,0,1,2.12,1.84,10.63,10.63,0,0,1,1.47,2.3,5.44,5.44,0,0,1,.55,2.3l1.47,34.39,15.82.74a9.12,9.12,0,0,1,5.8,1.19q2.65,1.58,2.85,5.8a8.86,8.86,0,0,1-5.34,2.85,37.57,37.57,0,0,1-6.53.37c-2.27-.06-4.5-.06-6.71,0a11.27,11.27,0,0,0-5.89,1.74q0,1.11.19,6.07t.37,11.78q.18,6.8.46,14.53t.46,14.25q.18,6.54.27,11.13c.06,3.07.09,4.78.09,5.15q-4.23,2.56-6.8-.46t-4.14-9a82.07,82.07,0,0,1-2.21-14q-.65-8-.73-15.82t.09-14.44Q645.12,130.37,645.49,127.42Z" transform="translate(-395.5 -54.05)"/><path class="cls-1" d="M765.41,187c-.24-1.22-.49-3.19-.73-5.89s-.55-5.7-.92-9-.74-6.83-1.1-10.57-.74-7.3-1.11-10.67-.71-6.38-1-9-.52-4.63-.64-6a20.31,20.31,0,0,1-.28-4.6,30.15,30.15,0,0,0-.37-5.7,26.62,26.62,0,0,0-1.47-5.52,6.84,6.84,0,0,0-3-3.68,60.66,60.66,0,0,1-13.25,5.52,51.81,51.81,0,0,1-14,1.84q-10.85,0-21.7-13.24c-.49,0-.83.36-1,1.1a20,20,0,0,0-.46,2.57,17,17,0,0,0-.09,3.13q.09,1.65.09,2.76l-.18,61.43a3,3,0,0,1-.65,1.93,3.62,3.62,0,0,1-1.56,1.2,16.78,16.78,0,0,1-1.93.64,7.15,7.15,0,0,1-1.93.28,3.87,3.87,0,0,1-4-2.48,21.63,21.63,0,0,1-1.38-4.88V151.7q0-12.15,1-23.92t1-23.91a14.64,14.64,0,0,0-1.47-6.62q-1.47-2.94-3.12-5.79t-3-5.7a14.39,14.39,0,0,1-1.38-6.35q0-3.85,3.68-3.86a11.27,11.27,0,0,1,7.73,2.76,29.24,29.24,0,0,1,5.51,6.62,79.53,79.53,0,0,1,4.6,8.64,43.48,43.48,0,0,0,5.24,8.65,33,33,0,0,0,7,6.62,16.79,16.79,0,0,0,9.84,2.76c4.91.25,9-.52,12.24-2.3a23.84,23.84,0,0,0,7.9-6.81,39.85,39.85,0,0,0,5-9q1.93-4.87,3.4-9A32.9,32.9,0,0,1,761,77.76q1.83-2.58,4.41-2a2.94,2.94,0,0,1,3,.92A9.39,9.39,0,0,1,770,79.87a17.24,17.24,0,0,1,.65,3.77q.09,1.85.09,2.58a85.12,85.12,0,0,1-1,13.33,85.24,85.24,0,0,0-1,13.52A133.64,133.64,0,0,0,770,131.65q1.29,9.19,3,18.48t3.12,18.49A123.74,123.74,0,0,1,777.55,187a6.64,6.64,0,0,1-.36,2.39,2.32,2.32,0,0,1-1.11,1.29,3.71,3.71,0,0,1-1.65.37h-2a16,16,0,0,1-4.32-.55Q766.15,190,765.41,187Z" transform="translate(-395.5 -54.05)"/><path class="cls-1" d="M786.38,141.4a58.7,58.7,0,0,1,2.85-18.31,46.84,46.84,0,0,1,8.28-15.35,40.62,40.62,0,0,1,13.24-10.58,39.7,39.7,0,0,1,18.12-4,27.83,27.83,0,0,1,10.58,3.31,24,24,0,0,1,7.35,6.34,24.62,24.62,0,0,1,4.14,8.74,45.49,45.49,0,0,1,1.11,10.3,19.85,19.85,0,0,1-3.87,11.95,33.17,33.17,0,0,1-9.75,8.93,50.66,50.66,0,0,1-12.69,5.51,46.47,46.47,0,0,1-12.69,1.93h-4.5a11,11,0,0,1-4.14-.73,6.73,6.73,0,0,1-2.95-2.21,7.35,7.35,0,0,1-1.1-4.41,3.9,3.9,0,0,1,.28-1.57c.18-.42.7-.73,1.56-.92a15.19,15.19,0,0,1,3.86-.09q2.58.38,7,1.11a24.16,24.16,0,0,0,7.45-1.75,70.8,70.8,0,0,0,9.93-4.51,39.59,39.59,0,0,0,8.74-6.34q3.68-3.59,3.68-7.08a22.75,22.75,0,0,0-1.2-7.27,18.55,18.55,0,0,0-9.19-10.76,13.09,13.09,0,0,0-7.27-1.29,28.64,28.64,0,0,0-11.68,3.5,29.64,29.64,0,0,0-8.92,7.63,36.62,36.62,0,0,0-5.7,10.39,35.47,35.47,0,0,0-2,12q0,4.78.18,9.56a43.45,43.45,0,0,0,1.38,9.38,31.2,31.2,0,0,0,3.86,8.83A24.26,24.26,0,0,0,810,171.1a46.41,46.41,0,0,0,12.78,5.33,89.67,89.67,0,0,0,19.13,2.67l32.92-2.21a23.45,23.45,0,0,1-7.45,6.63,47.6,47.6,0,0,1-9.56,4.13,66.26,66.26,0,0,1-10,2.3,63,63,0,0,1-9.39.74,56.68,56.68,0,0,1-20-3.5,52,52,0,0,1-16.56-9.84,45.49,45.49,0,0,1-11.31-15.45A49,49,0,0,1,786.38,141.4Z" transform="translate(-395.5 -54.05)"/></g><g id="Layer_4" data-name="Layer 4"><g id="layer1"><g id="g4625"><path id="path4094" class="cls-2" d="M875.08,142.85l2.24,31.66,22.43-21.22,2.67-9.45-24.28-9Z" transform="translate(-395.5 -54.05)"/><path id="path4619" class="cls-3" d="M880,167.07l10.92-22.28a21.62,21.62,0,0,1,7.32,6.5l-.08.74-17,16.3Z" transform="translate(-395.5 -54.05)"/><path id="path4092" class="cls-4" d="M876,140.47,900.54,77c8.9-2.61,23.28-.2,24.24,11.65l-24.66,62.18C893.91,141.93,885.21,139.58,876,140.47Z" transform="translate(-395.5 -54.05)"/><path id="path4098" class="cls-5" d="M900.77,76.39l4.32-11.81c9.16,1.63,17.58,7,24.16,11.67L924.91,88C918.47,78.77,909,75.58,900.77,76.39Z" transform="translate(-395.5 -54.05)"/><path id="path4100" class="cls-6" d="M904.49,67.09c8.19-1.92,20,3.62,24.53,9.85,0,0,2.37-8.88,1.49-11-2.94-7.12-14.77-12.6-21.55-9.74C907.12,57,904.49,67.09,904.49,67.09Z" transform="translate(-395.5 -54.05)"/><path id="path4102" class="cls-7" d="M887.56,163.65" transform="translate(-395.5 -54.05)"/><path id="path4102-2" data-name="path4102" class="cls-7" d="M884.1,169.5" transform="translate(-395.5 -54.05)"/><path id="path4615" class="cls-8" d="M891.56,140.92c1.24,0,5.29,3.6,5.29,3.6l3,2.92,22.4-57.24.55-2.11s-2.19-2.83-3.12-3.7a15.49,15.49,0,0,0-3-1.87Z" transform="translate(-395.5 -54.05)"/><path id="path4621" class="cls-9" d="M919.19,79.55l3,2.39,2.11,2.4L926.92,77,925,75.57l-3.6-2.31Z" transform="translate(-395.5 -54.05)"/><path id="path4623" class="cls-10" d="M922.45,68.86l2.87,1.93L928,73.05l.88-5.84c-.31-1.81-2.69-4.64-4.42-5.64Z" transform="translate(-395.5 -54.05)"/></g><polyline class="cls-11" points="488.03 114.58 481.23 112.2 481.82 120.45 487.74 114.85"/></g></g></svg>