<svg xmlns="http://www.w3.org/2000/svg" viewBox="0 0 509.35 126.38"><title>SkitMe Logo</title><g id="Layer_1" data-name="Layer 1"><path d="M24.92,166.49a12.69,12.69,0,0,1,.79-4.21A18.94,18.94,0,0,1,27.86,158a13,13,0,0,1,3.33-3.43,7.11,7.11,0,0,1,4.12-1.37q0,12.75,4.51,20.09a29.68,29.68,0,0,0,12.45,11.28,58.22,58.22,0,0,0,18.14,5.29q10.19,1.38,22,2c2.62-.13,6-.22,10.3-.29a62.61,62.61,0,0,0,12.25-1.37,26.8,26.8,0,0,0,10-4.22q4.11-2.94,3.92-9c0-1.83-.07-3.46-.2-4.9a13,13,0,0,0-.88-3.82,9.58,9.58,0,0,0-2.35-3.24,21.57,21.57,0,0,0-4.61-3.13L62.56,130a33.48,33.48,0,0,1-6.07-4.41,25.78,25.78,0,0,1-4.91-5.88,32.73,32.73,0,0,1-3.13-6.86,22.94,22.94,0,0,1-1.18-7.16c0-5,1.34-9,4-12.15a29.74,29.74,0,0,1,10-7.55,49,49,0,0,1,12.94-4,77.93,77.93,0,0,1,12.84-1.18,66.9,66.9,0,0,1,7.06.49q4.31.49,9.21,1.47a87.84,87.84,0,0,1,9.71,2.55,36,36,0,0,1,8.53,4A24.66,24.66,0,0,1,127.75,95a12.18,12.18,0,0,1,2.45,7.55,7.8,7.8,0,0,1-5.58,1,21.73,21.73,0,0,1-5.79-2.16q-2.94-1.56-6.08-3.53T106.28,94a34.84,34.84,0,0,0-7-3.14A19.75,19.75,0,0,0,91.38,90q-3.72,0-9.6.39a60.73,60.73,0,0,0-11.47,1.86,27.3,27.3,0,0,0-9.61,4.51,10.08,10.08,0,0,0-4,8.53A14.71,14.71,0,0,0,60.41,115a43.24,43.24,0,0,0,10.09,8.43,119.86,119.86,0,0,0,14.32,7.64q7.94,3.63,16.07,7.45t15.88,7.94a77.06,77.06,0,0,1,13.53,9,40.74,40.74,0,0,1,9,10.49,19.21,19.21,0,0,1,2.25,12.65,20.85,20.85,0,0,1-6.07,12.15,34.69,34.69,0,0,1-12.94,7.94,69.76,69.76,0,0,1-17.45,3.73,106.62,106.62,0,0,1-19.8-.1,119,119,0,0,1-20.2-3.73,80.91,80.91,0,0,1-18.23-7.35,59.15,59.15,0,0,1-14.12-10.78A31,31,0,0,1,24.92,166.49Z" transform="translate(-24.92 -76.5)"/><path d="M156.87,195.7c0-.26.06-.94.19-2.06s.33-2.31.59-3.62.46-2.52.59-3.63.19-1.79.19-2.06v-2.06c0-1.11,0-2.38.1-3.82s.1-2.94.1-4.51v-6.66c0-1.31,0-2.65-.1-4s-.1-2.55-.1-3.53v-1.67q-.59-9-2.25-19.12t-3.53-20.09q-1.86-10-3.53-19.61T146.67,81.6q1.77-4.71,3.82-3.24c1.38,1,2.78,3.31,4.22,7A127.48,127.48,0,0,1,159,99q2.16,8.13,3.83,16.57t3,15.88q1.19,7.46,2,11.56a2,2,0,0,0,1.47.4h1.47a10.66,10.66,0,0,0,6.86-2.36,30.84,30.84,0,0,0,5.59-6q2.64-3.61,5.19-7.84a79.87,79.87,0,0,1,5.29-7.74,30.67,30.67,0,0,1,6.08-6,12.53,12.53,0,0,1,7.65-2.45c1.83,0,2.94.55,3.33,1.66a9.07,9.07,0,0,1,.39,3.83,72.83,72.83,0,0,0-6.27,5.68q-3.53,3.52-7.55,7.65t-8,8.62a108.14,108.14,0,0,0-7.05,8.73,67.07,67.07,0,0,0-5.1,8.14,15.24,15.24,0,0,0-2.06,6.86,12.22,12.22,0,0,0,2.84,7.84,32.2,32.2,0,0,0,7.26,6.47,48.3,48.3,0,0,0,9.9,5c3.65,1.37,7.32,2.55,11,3.53a102,102,0,0,0,10.39,2.25,48.48,48.48,0,0,0,7.84.79,2.21,2.21,0,0,1,2,2,23.94,23.94,0,0,1,.2,2.94,5,5,0,0,1-1.87,4.31,11.67,11.67,0,0,1-4.51,2,25.31,25.31,0,0,1-5.49.59h-4.8a23,23,0,0,1-9.9-2.74q-5.58-2.75-10.78-6t-9.12-6c-2.62-1.83-4.44-2.75-5.49-2.75a4.12,4.12,0,0,0-4.21,3,29.2,29.2,0,0,0-1.47,6.57,39.83,39.83,0,0,1-1.28,6.57,3.71,3.71,0,0,1-3.82,3,8.57,8.57,0,0,1-4.71-1.37A4.92,4.92,0,0,1,156.87,195.7Z" transform="translate(-24.92 -76.5)"/><path d="M230.39,84.34c0-1.57.45-2.58,1.37-3a8,8,0,0,1,3.53-.68c.91-.13,2.12.42,3.63,1.66a17.64,17.64,0,0,1,3.72,4.22,10.29,10.29,0,0,1,1.67,4.31q.19,2.35-2.94,2.75h-1a25.85,25.85,0,0,1-4.91-.39,6.8,6.8,0,0,1-3-1.28,5,5,0,0,1-1.57-2.65A18.93,18.93,0,0,1,230.39,84.34Zm10,49.21v-2.94c0-1.43,0-2.94.09-4.51s.1-3.07.1-4.51v-2.94c-.52-4.05.65-6.07,3.53-6.07a5.51,5.51,0,0,1,3.33,1A9.43,9.43,0,0,1,250,116.5a93.57,93.57,0,0,0,.89,19.7q1.47,9.51,3.33,18.82t3.53,18.73a112.34,112.34,0,0,1,1.66,19.6,10.5,10.5,0,0,1-1.66,5.49,5.47,5.47,0,0,1-5,2.74q-2.55,0-4.41-4.41A58.68,58.68,0,0,1,245.09,186q-1.36-6.76-2.35-15t-1.47-15.78q-.5-7.54-.69-13.53T240.39,133.55Z" transform="translate(-24.92 -76.5)"/><path d="M289.79,134H284.3a50.33,50.33,0,0,1-8.13-.69,29.73,29.73,0,0,1-7.65-2.26q-3.43-1.56-3.43-4.5a12.9,12.9,0,0,1,.29-2.26,1.7,1.7,0,0,1,1.87-1.47L287.44,121q.78-7.26,1.18-11.87a65,65,0,0,0,.19-8.62q-.19-4-.49-8.43c-.19-2.94-.36-6.77-.49-11.47a3.57,3.57,0,0,1,.59-2.16,3.65,3.65,0,0,1,1.47-1.17,8.17,8.17,0,0,1,2-.59,10.27,10.27,0,0,1,1.67-.2,4.64,4.64,0,0,1,2.45.79,8.92,8.92,0,0,1,2.25,2,10.69,10.69,0,0,1,1.57,2.45,5.86,5.86,0,0,1,.59,2.45L302,120.81l16.86.78a9.66,9.66,0,0,1,6.17,1.28q2.85,1.66,3,6.17a9.34,9.34,0,0,1-5.68,3,40.6,40.6,0,0,1-7,.4q-3.63-.1-7.16,0a11.9,11.9,0,0,0-6.27,1.86q0,1.17.19,6.47t.4,12.54q.19,7.26.49,15.49t.49,15.2q.19,7,.29,11.86c.07,3.27.1,5.1.1,5.49q-4.52,2.75-7.26-.49t-4.41-9.61a87.16,87.16,0,0,1-2.35-14.9q-.69-8.52-.78-16.86t.09-15.39Q289.4,137.09,289.79,134Z" transform="translate(-24.92 -76.5)"/><path d="M417.62,197.47q-.39-2-.78-6.28c-.27-2.87-.59-6.07-1-9.6s-.79-7.29-1.18-11.28-.78-7.77-1.18-11.37-.75-6.79-1.07-9.6-.56-4.94-.69-6.38a21.66,21.66,0,0,1-.29-4.9,32.63,32.63,0,0,0-.4-6.08,28.21,28.21,0,0,0-1.56-5.88,7.34,7.34,0,0,0-3.24-3.92,64.18,64.18,0,0,1-14.12,5.88,55.27,55.27,0,0,1-14.9,2q-11.57,0-23.13-14.11-.78,0-1.08,1.17a24.76,24.76,0,0,0-.49,2.75,19.14,19.14,0,0,0-.1,3.33c.07,1.18.1,2.16.1,2.94l-.2,65.49a3.26,3.26,0,0,1-.68,2,4,4,0,0,1-1.67,1.28,19.89,19.89,0,0,1-2.06.69,8.05,8.05,0,0,1-2.06.29,4.12,4.12,0,0,1-4.21-2.65,22.82,22.82,0,0,1-1.47-5.19V159.83q0-12.95,1.08-25.49t1.08-25.49a15.66,15.66,0,0,0-1.57-7.06q-1.57-3.14-3.34-6.17c-1.17-2-2.25-4.05-3.23-6.08a15.35,15.35,0,0,1-1.47-6.77c0-2.74,1.3-4.11,3.92-4.11a12,12,0,0,1,8.23,2.94,31,31,0,0,1,5.89,7.06,87.17,87.17,0,0,1,4.9,9.21,46.63,46.63,0,0,0,5.58,9.22,34.61,34.61,0,0,0,7.46,7,17.85,17.85,0,0,0,10.48,2.94q7.85.4,13-2.45a25.27,25.27,0,0,0,8.43-7.25,42.93,42.93,0,0,0,5.3-9.61q2.06-5.19,3.62-9.6A35.27,35.27,0,0,1,412.92,81q1.95-2.74,4.7-2.16a3.11,3.11,0,0,1,3.24,1,10.06,10.06,0,0,1,1.66,3.43,17.84,17.84,0,0,1,.69,4c.06,1.31.1,2.23.1,2.75a90,90,0,0,1-1.08,14.21,91.5,91.5,0,0,0-1.08,14.41,143.28,143.28,0,0,0,1.37,19.8q1.38,9.81,3.24,19.71t3.33,19.7a132.09,132.09,0,0,1,1.47,19.61,7,7,0,0,1-.39,2.55,2.49,2.49,0,0,1-1.18,1.37,3.89,3.89,0,0,1-1.76.39h-2.16a16.89,16.89,0,0,1-4.61-.59Q418.41,200.61,417.62,197.47Z" transform="translate(-24.92 -76.5)"/><path d="M440,148.85a62.37,62.37,0,0,1,3-19.51A50.13,50.13,0,0,1,451.83,113,43.38,43.38,0,0,1,466,101.69a42.34,42.34,0,0,1,19.31-4.21A29.63,29.63,0,0,1,496.53,101a25.55,25.55,0,0,1,7.85,6.76,26.37,26.37,0,0,1,4.41,9.31,49,49,0,0,1,1.17,11,21.24,21.24,0,0,1-4.11,12.75,35.52,35.52,0,0,1-10.39,9.51,54.5,54.5,0,0,1-13.53,5.88,49.87,49.87,0,0,1-13.53,2.06h-4.8a11.59,11.59,0,0,1-4.41-.79,7,7,0,0,1-3.14-2.35,7.75,7.75,0,0,1-1.18-4.71,4.14,4.14,0,0,1,.3-1.66c.19-.46.75-.79,1.66-1a15.72,15.72,0,0,1,4.12-.1c1.83.26,4.31.66,7.45,1.18a25.7,25.7,0,0,0,7.94-1.87,75.41,75.41,0,0,0,10.59-4.8,42.62,42.62,0,0,0,9.31-6.76q3.92-3.82,3.92-7.55a24.34,24.34,0,0,0-1.27-7.75,19.72,19.72,0,0,0-3.83-6.76,19.94,19.94,0,0,0-6-4.71,13.9,13.9,0,0,0-7.74-1.37A30.41,30.41,0,0,0,468.89,111a31.79,31.79,0,0,0-9.51,8.13,39.2,39.2,0,0,0-6.08,11.08A37.75,37.75,0,0,0,451.15,143q0,5.1.19,10.2a46.71,46.71,0,0,0,1.47,10,33.47,33.47,0,0,0,4.12,9.41,25.86,25.86,0,0,0,8.24,7.94,49.71,49.71,0,0,0,13.62,5.68A95.61,95.61,0,0,0,499.18,189l35.1-2.36a25,25,0,0,1-7.95,7.06,50.53,50.53,0,0,1-10.19,4.41,70.69,70.69,0,0,1-10.68,2.45,67.53,67.53,0,0,1-10,.79,60.51,60.51,0,0,1-21.37-3.73,55.64,55.64,0,0,1-17.65-10.49,48.29,48.29,0,0,1-12.06-16.46A52.28,52.28,0,0,1,440,148.85Z" transform="translate(-24.92 -76.5)"/></g></svg>